<svg width="48" height="48" viewBox="0 0 48 48" fill="none" xmlns="http://www.w3.org/2000/svg">
<path d="M30.0016 10C30.0016 13.3137 27.3153 16 24.0016 16C20.6879 16 18.0016 13.3137 18.0016 10C18.0016 6.68629 20.6879 4 24.0016 4C27.3153 4 30.0016 6.68629 30.0016 10Z" stroke="#E43C13" stroke-width="2"/>
<path d="M18.3362 22H29.667C32.0026 22 33.8414 23.9926 33.6541 26.3206L33.1495 32.5951C33.066 33.6342 32.1984 34.4348 31.156 34.4348H30.8034C29.7794 34.4348 28.9207 35.2083 28.8143 36.2268L28.189 42.208C28.0825 43.2265 27.2239 44 26.1998 44H21.8034C20.7794 44 19.9207 43.2265 19.8143 42.208L19.189 36.2268C19.0825 35.2083 18.2239 34.4348 17.1998 34.4348H16.8472C15.8048 34.4348 14.9372 33.6342 14.8537 32.5951L14.3491 26.3206C14.1618 23.9926 16.0006 22 18.3362 22Z" stroke="#E43C13" stroke-width="2"/>
</svg>
