<svg width="48" height="48" viewBox="0 0 48 48" fill="none" xmlns="http://www.w3.org/2000/svg">
<path d="M42 28V32.4C42 35.7603 42 37.4405 41.346 38.7239C40.7708 39.8529 39.8529 40.7708 38.7239 41.346C37.4405 42 35.7603 42 32.4 42H28M20 6H15.6C12.2397 6 10.5595 6 9.27606 6.65396C8.14708 7.2292 7.2292 8.14708 6.65396 9.27606C6 10.5595 6 12.2397 6 15.6V20M30 18L42 6M42 6H30M42 6V18M18 30L6 42M6 42H18M6 42L6 30" stroke="#E43C13" stroke-width="2" stroke-linecap="round" stroke-linejoin="round"/>
</svg>
