<svg width="48" height="48" viewBox="0 0 48 48" fill="none" xmlns="http://www.w3.org/2000/svg">
<path d="M36.4352 23.6643L35.7296 22.9557L35.7296 22.9557L36.4352 23.6643ZM28.8094 31.2587L28.1037 30.5501L28.1037 30.5501L28.8094 31.2587ZM23.6978 26.2459L24.4071 26.9508L24.4071 26.9508L23.6978 26.2459ZM31.3298 18.5647L30.6204 17.8599L30.6204 17.8599L31.3298 18.5647ZM25.6875 32.6993L25.7688 33.696L25.7688 33.696L25.6875 32.6993ZM22 33L21.0026 32.9284C20.9817 33.2195 21.089 33.5052 21.2963 33.7105C21.5037 33.9159 21.7904 34.0204 22.0813 33.9967L22 33ZM22.2575 29.4122L23.2549 29.4838L23.2549 29.4838L22.2575 29.4122ZM36.4375 18.5536L37.1438 17.8456L37.1438 17.8456L36.4375 18.5536ZM20 5H28V3H20V5ZM43 20V28H45V20H43ZM28 43H20V45H28V43ZM5 28V20H3V28H5ZM20 43C16.2005 43 13.4515 42.9979 11.3551 42.716C9.28745 42.438 8.00506 41.9046 7.05025 40.9497L5.63604 42.364C7.02438 43.7523 8.79918 44.3904 11.0886 44.6982C13.3492 45.0021 16.257 45 20 45V43ZM3 28C3 31.743 2.99788 34.6508 3.30181 36.9114C3.60961 39.2008 4.2477 40.9756 5.63604 42.364L7.05025 40.9497C6.09545 39.9949 5.56196 38.7125 5.28398 36.6449C5.00212 34.5485 5 31.7995 5 28H3ZM43 28C43 31.7995 42.9979 34.5485 42.716 36.6449C42.438 38.7125 41.9046 39.9949 40.9497 40.9497L42.364 42.364C43.7523 40.9756 44.3904 39.2008 44.6982 36.9114C45.0021 34.6508 45 31.743 45 28H43ZM28 45C31.743 45 34.6508 45.0021 36.9114 44.6982C39.2008 44.3904 40.9756 43.7523 42.364 42.364L40.9497 40.9497C39.9949 41.9046 38.7125 42.438 36.6449 42.716C34.5485 42.9979 31.7995 43 28 43V45ZM28 5C31.7995 5 34.5485 5.00212 36.6449 5.28398C38.7125 5.56196 39.9949 6.09545 40.9497 7.05025L42.364 5.63604C40.9756 4.2477 39.2008 3.60961 36.9114 3.30181C34.6508 2.99788 31.743 3 28 3V5ZM45 20C45 16.257 45.0021 13.3492 44.6982 11.0886C44.3904 8.79918 43.7523 7.02438 42.364 5.63604L40.9497 7.05025C41.9045 8.00506 42.438 9.28745 42.716 11.3551C42.9979 13.4515 43 16.2005 43 20H45ZM20 3C16.257 3 13.3492 2.99788 11.0886 3.30181C8.79918 3.60961 7.02438 4.2477 5.63604 5.63604L7.05025 7.05025C8.00506 6.09545 9.28745 5.56196 11.3551 5.28398C13.4515 5.00212 16.2005 5 20 5V3ZM5 20C5 16.2005 5.00212 13.4515 5.28398 11.3551C5.56196 9.28745 6.09545 8.00506 7.05025 7.05025L5.63604 5.63604C4.2477 7.02438 3.60961 8.79918 3.30181 11.0886C2.99788 13.3492 3 16.257 3 20H5ZM35.7296 22.9557L28.1037 30.5501L29.515 31.9672L37.1408 24.3729L35.7296 22.9557ZM24.4071 26.9508L32.0391 19.2696L30.6204 17.8599L22.9884 25.5411L24.4071 26.9508ZM25.6063 31.7026L21.9187 32.0033L22.0813 33.9967L25.7688 33.696L25.6063 31.7026ZM22.9974 33.0716L23.2549 29.4838L21.26 29.3406L21.0026 32.9284L22.9974 33.0716ZM22.9884 25.5411C21.9761 26.5599 21.3628 27.9081 21.26 29.3406L23.2549 29.4838C23.3234 28.5288 23.7323 27.63 24.4071 26.9508L22.9884 25.5411ZM28.1037 30.5501C27.4337 31.2174 26.5488 31.6257 25.6063 31.7026L25.7688 33.696C27.1826 33.5807 28.5099 32.9682 29.515 31.9672L28.1037 30.5501ZM35.7312 19.2615C36.7532 20.2811 36.7525 21.937 35.7296 22.9557L37.1408 24.3729C38.9482 22.573 38.9496 19.6472 37.1438 17.8456L35.7312 19.2615ZM37.1438 17.8456C35.3396 16.0456 32.4168 16.0519 30.6204 17.8599L32.0391 19.2696C33.0558 18.2463 34.7101 18.2427 35.7312 19.2615L37.1438 17.8456ZM13 38V30H11V38H13ZM13 18V10H11V18H13ZM13 26V22H11V26H13Z" fill="#E43C13"/>
</svg>
