<svg width="90" height="208" viewBox="0 0 90 208" fill="none" xmlns="http://www.w3.org/2000/svg">
<rect x="60" width="30" height="30" fill="#ECE7E1"/>
<rect x="30.0049" y="30.005" width="29.7548" height="29.7548" fill="#ECE7E1"/>
<rect x="15.0024" y="59.7596" width="15.0024" height="15.0024" fill="#ECE7E1"/>
<rect x="15.0024" y="15.0024" width="15.0024" height="15.0024" fill="#ECE7E1"/>
<rect x="15.2527" y="119.519" width="15.0024" height="15.0024" fill="#ECE7E1"/>
<rect x="15.2527" y="178.528" width="15.0024" height="15.0024" fill="#ECE7E1"/>
<rect y="74.5118" width="15.0024" height="15.0024" fill="#ECE7E1"/>
<rect x="0.250244" y="134.272" width="15.0024" height="15.0024" fill="#ECE7E1"/>
<rect y="44.7572" width="15.0024" height="15.0024" fill="#ECE7E1"/>
<rect x="0.250244" y="104.517" width="15.0024" height="15.0024" fill="#ECE7E1"/>
<rect y="193" width="15" height="15" fill="#ECE7E1"/>
<rect width="15" height="15" fill="#ECE7E1"/>
<rect x="0.250244" y="163.526" width="15.0024" height="15.0024" fill="#ECE7E1"/>
<rect x="60" y="60" width="30" height="30" fill="#ECE7E1"/>
<rect x="30.2554" y="89.5144" width="29.7548" height="29.7548" fill="#ECE7E1"/>
<rect x="30.2554" y="148.774" width="29.7548" height="29.7548" fill="#ECE7E1"/>
<rect x="60" y="119" width="30" height="30" fill="#ECE7E1"/>
<rect x="60" y="179" width="30" height="29" fill="#ECE7E1"/>
</svg>
